<svg width="512" height="512" viewBox="0 0 178 171" fill="none" xmlns="http://www.w3.org/2000/svg">
	<path d="M21.222 123.271V101.94H0V123.271H21.222Z" fill="royalblue"/>
	<path d="M177.552 83.0527C177.714 89.4031 177.066 95.7535 175.932 102.104C173.826 112.851 169.776 123.109 164.106 132.227C156.978 143.626 147.096 153.07 135.594 159.909C122.796 167.399 108.054 171.307 93.3122 170.981C79.3802 170.818 65.6101 167.073 53.4601 160.072C42.2821 153.721 32.8861 144.603 25.7581 134.019C25.4341 133.53 25.2721 133.204 24.9481 132.716C26.7301 135.158 29.4841 137.275 31.7521 139.229C34.3441 141.346 37.2601 143.3 40.1761 144.928C46.3321 148.348 52.9741 150.465 59.9401 151.279C61.5601 151.441 63.1801 151.604 64.6381 151.604C77.4362 152.093 90.2342 148.185 100.602 140.369C103.356 138.415 105.786 136.135 108.054 133.53C115.182 125.714 120.204 115.782 121.986 105.36C122.796 100.638 123.12 95.7535 122.634 91.0314C122.634 90.3801 121.5 83.0527 121.5 83.0527C121.5 83.0527 125.388 81.0987 131.706 81.0987C144.018 81.0987 160.542 94.6137 161.352 110.571C161.028 101.127 158.598 92.334 154.224 84.681C152.766 81.9129 150.984 79.3076 149.04 77.028C138.672 64.0015 122.796 55.5343 104.814 55.5343C100.116 55.5343 95.5802 56.0228 91.2062 57.1626C90.8822 57.3255 90.3962 57.3255 90.0722 57.4883C83.1062 59.2794 77.1122 62.2104 68.6882 68.2351C64.4761 71.1661 55.8901 78.8191 49.2481 84.8438C45.6841 88.1004 40.1761 84.681 41.3101 80.1217C42.2821 75.8881 43.9021 71.0032 46.3321 65.7926C32.8861 48.3698 32.5621 28.016 58.8061 9.94178C74.1962 -0.6422 99.4682 -3.57315 122.796 5.05687C137.376 -2.43334 157.464 -3.08466 176.094 16.9435C177.876 18.8975 176.58 22.3169 173.826 22.3169C168.48 22.4797 161.19 23.7824 155.52 28.016C156.33 28.993 156.978 29.8071 157.788 30.7841C169.452 46.0902 177.066 64.0015 177.552 83.0527Z" fill="royalblue "/>
</svg>
