<svg 
	id="zmx-file-tile"
	xmlns="http://www.w3.org/2000/svg" 
	xmlns:xlink="http://www.w3.org/1999/xlink" 
	viewBox="0 0 30 30" 
	style="background:rgb(247, 127, 0)">

	<style>
		.tile-icon {
			fill: white;
		}
	</style>

	<g class="tile-icon" transform="translate(15, 15), scale(0.5), translate(-15, -22.5)">
		<g transform="translate(-14.5, -2)">
			<g transform="translate(2, -5)">
				<g class="file-icon" transform="translate(12, 1) scale(0.06)">
					<path d="m 103.6688,334.08496 c 0,119.18143 34.49617,215.79625 77.05269,215.79625 42.55265,0 77.05011,-96.61482 77.05011,-215.79625 0,-119.18143 -34.49746,-215.79625 -77.05011,-215.79625 -42.55652,0 -77.05269,96.61482 -77.05269,215.79625 z"  fill="white" />
					<path d="M 271.52554,168.2803 c 16.02674,44.88903 24.85413,103.77243 24.85413,165.80466 0,62.03223 -8.82739,120.91433 -24.85413,165.80466 -7.0964,19.87375 -15.48364,36.63374 -24.9957,49.99159 l 59.49057,0 c 42.55524,0 77.05269,-96.61482 77.05269,-215.79625 0,-119.18143 -34.49745,-215.79625 -77.05269,-215.79625 l -59.49057,0 c 9.51206,13.35785 17.8993,30.11654 24.9957,49.99159 z" />
				</g>
			</g>
		</g>
	</g>
</svg>